<svg xmlns="http://www.w3.org/2000/svg" viewBox="0 0 344.78 318.69"><defs><style>.cls-1{fill:none;}.cls-1,.cls-2,.cls-3,.cls-4{stroke:#404040;stroke-linecap:round;stroke-linejoin:round;stroke-width:5.48px;}.cls-2,.cls-4{fill:#c9a584;}.cls-2,.cls-3{fill-rule:evenodd;}.cls-3{fill:#d3002f;}</style></defs><g id="レイヤー_2" data-name="レイヤー 2"><g id="レイヤー_1-2" data-name="レイヤー 1"><rect class="cls-1" x="2.74" y="2.74" width="339.31" height="313.21"/><path class="cls-2" d="M21,81.24,28.84,98h87l8.91-17.14L21,81.24Z"/><path class="cls-3" d="M112.82,105.74,130,122.48H319.69l19.43-17.14-226.3.4Z"/><path class="cls-2" d="M130.72,185.85l14.46,16.73H304.61L321,185.44l-190.23.41Z"/><rect class="cls-4" x="33.19" y="133.25" width="17.93" height="60.91"/><rect class="cls-4" x="94.6" y="133.25" width="16.91" height="60.91"/><path class="cls-2" d="M130.72,28.84V307l19.93.24V45.1h47.74V307.26H217l-.62-278.42Z"/><path class="cls-2" d="M234.92,28.84V307l19.93.24V45.1h47.74V307.26h18.62l-.62-278.42Z"/><path class="cls-2" d="M64.84,8.12l17,9.24V308.28H63.89l1-300.16Z"/><rect class="cls-1" x="259.4" y="148.84" width="8.69" height="34.81"/><path class="cls-1" d="M271,157l22.45,26.6L300,178l-22.45-26.6Z"/><rect class="cls-1" x="154.99" y="61.1" width="8.69" height="41.69"/><rect class="cls-1" x="163.7" y="68" width="8.69" height="34.81"/><rect class="cls-1" x="172.39" y="68" width="8.69" height="34.81"/></g></g></svg>