<svg xmlns="http://www.w3.org/2000/svg" viewBox="0 0 344.78 450.88"><defs><style>.cls-1,.cls-10{fill:none;}.cls-1,.cls-10,.cls-2,.cls-3,.cls-4,.cls-9{stroke:#404040;stroke-linecap:round;stroke-linejoin:round;}.cls-1,.cls-2,.cls-3,.cls-4{stroke-width:5.48px;}.cls-2,.cls-4,.cls-9{fill:#c9a584;}.cls-2,.cls-3,.cls-9{fill-rule:evenodd;}.cls-3{fill:#d3002f;}.cls-5{isolation:isolate;font-size:23.81px;fill:#404040;font-family:KozGoPr6N-Regular-90ms-RKSJ-H, Kozuka Gothic Pr6N;}.cls-6{letter-spacing:-0.01em;}.cls-7{letter-spacing:-0.02em;}.cls-8{letter-spacing:-0.06em;}.cls-10,.cls-9{stroke-width:2.38px;}</style></defs><g id="レイヤー_2" data-name="レイヤー 2"><g id="レイヤー_1-2" data-name="レイヤー 1"><rect class="cls-1" x="2.74" y="44.92" width="339.31" height="313.21"/><path class="cls-2" d="M21,123.43l7.89,16.74h87L124.75,123,21,123.43Z"/><path class="cls-3" d="M112.82,147.93,130,164.67H319.69l19.43-17.15-226.3.41Z"/><path class="cls-2" d="M130.72,228l14.46,16.74H304.61L321,227.62,130.72,228Z"/><rect class="cls-4" x="33.19" y="175.43" width="17.93" height="60.91"/><rect class="cls-4" x="94.6" y="175.43" width="16.91" height="60.91"/><path class="cls-2" d="M130.72,71V349.2l19.93.24V87.28h47.74V349.44H217L216.39,71Z"/><path class="cls-2" d="M234.92,71V349.2l19.93.24V87.28h47.74V349.44h18.62L320.59,71Z"/><path class="cls-2" d="M64.84,50.3l17,9.24V350.47H63.89l1-300.17Z"/><rect class="cls-1" x="259.4" y="191.03" width="8.69" height="34.81"/><path class="cls-1" d="M271,199.22l22.45,26.6,6.64-5.6-22.45-26.6Z"/><rect class="cls-1" x="154.99" y="103.28" width="8.69" height="41.69"/><rect class="cls-1" x="163.7" y="110.19" width="8.69" height="34.81"/><rect class="cls-1" x="172.39" y="110.19" width="8.69" height="34.81"/><text class="cls-5" transform="translate(32.69 20.95)">電子書籍統一管理<tspan class="cls-6" x="190.49" y="0">サ</tspan><tspan class="cls-7" x="214.06" y="0">ー</tspan><tspan class="cls-8" x="237.4" y="0">ビ</tspan><tspan class="cls-7" x="259.78" y="0">ス</tspan></text><path class="cls-9" d="M114.79,404.23l3.93,7.38,43.05-.12,4.67-7.38Z"/><path class="cls-9" d="M135.41,388.14l9,4.3v31.17L129,447.42l-6.53-5.14,12.81-20.1Z"/><path class="cls-9" d="M297.73,388.06l9,4.31v31.17l-15.43,23.81-6.5-5.14,12.78-20.1.12-34.05Z"/><path class="cls-9" d="M57.65,387.9,41.43,417.64h9.1l16.4-29.79-9.28,0Z"/><path class="cls-9" d="M219,387.9l-38.62,37.57h12.84L231,387.85Z"/><path class="cls-9" d="M206.25,400.3l8.95,5.46.39,41.59h-8.81Z"/><path class="cls-9" d="M90.89,396.64l-.15,29.95L72,449.69l-6.72-6,16.29-20.08,0-18.76-22.22.07-3.41-8.21,35-.07Z"/><path class="cls-9" d="M59.27,417.85h11L95,435.33H83.22Z"/><path class="cls-10" d="M261.68,387.85h7.81v24.86h-7.81Z"/><rect class="cls-10" x="277.02" y="387.85" width="7.81" height="24.86"/></g></g></svg>