<svg xmlns="http://www.w3.org/2000/svg" viewBox="0 0 267.71 64.22"><defs><style>.cls-1{fill:#c9a584;fill-rule:evenodd;}.cls-1,.cls-2{stroke:#404040;stroke-linecap:round;stroke-linejoin:round;stroke-width:2.38px;}.cls-2{fill:none;}</style></defs><g id="レイヤー_2" data-name="レイヤー 2"><g id="レイヤー_1-2" data-name="レイヤー 1"><path class="cls-1" d="M74.55,17.57,78.48,25l43.05-.12,4.67-7.38Z"/><path class="cls-1" d="M95.17,1.48l9,4.31V37L88.77,60.77l-6.53-5.15L95.05,35.53Z"/><path class="cls-1" d="M257.49,1.4l9,4.31V36.88L251.09,60.69l-6.5-5.14,12.78-20.1.12-34.05Z"/><path class="cls-1" d="M17.41,1.24,1.19,31h9.1L26.69,1.19l-9.28.05Z"/><path class="cls-1" d="M178.77,1.24,140.15,38.81H153L190.75,1.19Z"/><path class="cls-1" d="M166,13.64l9,5.46.38,41.59h-8.81Z"/><path class="cls-1" d="M50.65,10l-.15,30L31.72,63,25,57,41.29,37l0-18.76-22.21.07-3.41-8.21,35-.07Z"/><path class="cls-1" d="M19,31.19h11l24.7,17.48H43Z"/><path class="cls-2" d="M221.44,1.19h7.81V26.05h-7.81Z"/><rect class="cls-2" x="236.78" y="1.19" width="7.81" height="24.86"/></g></g></svg>